<svg width="97" height="24" viewBox="0 0 97 24" fill="none" xmlns="http://www.w3.org/2000/svg">
<path d="M41.6281 6.83444V15.7167C41.6281 18.0824 40.4387 19.7785 38.148 19.7785C35.8574 19.7785 34.7121 18.5734 34.7121 15.7167V6.83444H31.2321V16.4755C31.2321 20.7604 33.3905 23.0815 37.3111 23.0815C39.5136 23.0815 40.9232 22.0102 41.6721 21.0729V22.9029H45.1521V6.83444H41.6281ZM72.6839 6.6559C68.1907 6.6559 64.5786 10.3606 64.5786 14.8687C64.5786 19.4214 68.2348 23.0815 72.6839 23.0815C77.1771 23.0815 80.7893 19.3768 80.7893 14.8687C80.8333 10.3159 77.1771 6.6559 72.6839 6.6559ZM77.3533 14.8687C77.3533 17.4575 75.2829 19.5553 72.728 19.5553C70.173 19.5553 68.1026 17.4575 68.1026 14.8687C68.1026 12.2799 70.173 10.182 72.728 10.182C75.2829 10.182 77.3533 12.2799 77.3533 14.8687ZM56.297 6.6559C55.0195 6.6559 53.1253 6.92371 51.6717 8.53056V6.83444H48.1916V22.9029H51.6717V13.6189C51.6717 11.6996 53.2134 10.182 55.0636 10.182C55.5041 10.182 55.9005 10.2713 56.297 10.4052V6.6559ZM27.5758 21.5192C26.5627 22.5458 25.2411 23.0815 23.7875 23.0815C22.3778 23.0815 21.0123 22.5012 19.9991 21.5192C18.9859 20.4926 18.4573 19.1536 18.4573 17.6807H21.7611C21.7611 18.2163 21.9814 18.7519 22.3338 19.109C22.7302 19.5107 23.2148 19.6892 23.7434 19.6892C24.272 19.6892 24.8006 19.466 25.153 19.109C25.946 18.3055 25.946 17.0558 25.1971 16.2523C24.7125 15.8506 24.3601 15.806 23.7434 15.6721C22.9064 15.4936 21.8052 15.2704 20.6599 14.1099C18.9859 12.4138 18.9859 9.60179 20.6599 7.90567C22.3338 6.20956 25.109 6.20956 26.7829 7.90567C26.9591 8.08421 27.0913 8.26275 27.2675 8.48592L25.0649 10.7177C24.7125 10.3159 24.4042 10.0928 23.9637 10.0481C23.6113 9.95887 23.2589 10.0481 23.0386 10.3159C22.8624 10.4945 22.7302 10.7623 22.7302 11.0301C22.7302 11.2979 22.8183 11.5657 23.0386 11.7443C23.4791 12.1906 23.7875 12.2799 24.4482 12.3691C25.1971 12.503 26.2543 12.7262 27.4437 13.7528L27.5318 13.8421C29.6462 15.9845 29.6462 19.4214 27.5758 21.5192ZM12.7307 22.9029H16.2107V14.8687C16.2107 10.3159 12.5545 6.6559 8.10536 6.6559C3.65622 6.6559 0 10.3159 0 14.8687C0 19.4214 3.65622 23.0815 8.10536 23.0815C9.64714 23.0815 11.3651 22.6351 12.7307 21.0729V22.9029ZM8.10536 19.5553C5.55041 19.5553 3.48002 17.4575 3.48002 14.8687C3.48002 12.2799 5.55041 10.182 8.10536 10.182C10.6603 10.182 12.7307 12.2799 12.7307 14.8687C12.7307 17.4575 10.6603 19.5553 8.10536 19.5553ZM90.0399 10.182C88.1017 10.182 86.5599 11.7443 86.5599 13.7082V22.9029H83.0799V13.7082C83.0799 9.82496 86.2075 6.6559 90.0399 6.6559C93.8724 6.6559 97 9.82496 97 13.7082V22.9029H93.52V13.7082C93.52 11.7443 91.9782 10.182 90.0399 10.182ZM58.8519 6.83444H60.658H62.332V22.9029H58.8519V6.83444ZM62.9487 2.63879C62.9487 3.97783 61.8915 5.04906 60.5699 5.04906C59.2484 5.04906 58.1912 3.97783 58.1912 2.63879C58.1912 1.29975 59.2484 0.228516 60.5699 0.228516C61.8915 0.228516 62.9487 1.29975 62.9487 2.63879Z" fill="white"/>
</svg>
